<svg id="logotype_1_" xmlns="http://www.w3.org/2000/svg" viewBox="0 0 425.2 154.8">
    <style>.st0{fill:red}</style>
    <path d="M210.2 99.3c-1.1 0-2 0-2.4 0-1.5 0-2.9-1-2.9-3V66.4H197v29.9c0 3.8 1.2 6.2 2.7 7.6 1.6 1.4 3.9 2 6.3 2 1 0 2.6 0 4.2 0V99.3zM140.1 98.3l6.7-1.9c.8 2.7 2.6 4.1 5.4 4.1 2.3 0 4.1-.8 4.1-2.6 0-1.8-2.3-2.5-5.7-3-5.6-1-9.4-3.2-9.4-8.4 0-5.3 4.8-8.7 11.5-8.7 6.6 0 10 3.1 11.2 7.3l-6.7 1.7c-.6-2.3-2.2-3.3-4.5-3.3s-3.8 1-3.8 2.6c0 1.8 2.1 2.3 5.5 2.7 5.4.8 9.7 3 9.7 8.7 0 5.3-4.8 8.8-11.8 8.8C145.7 106.4 141.5 103.6 140.1 98.3zM165.9 92c0-9.2 7-14.2 14-14.2 7.3 0 14 5 14 14.2 0 9.3-6.9 14.5-14 14.5C172.6 106.5 165.9 101.4 165.9 92zM186.1 92c0-4.8-2.9-7.2-6-7.2-3.2 0-6 2.4-6 7.2 0 4.9 2.9 7.5 6 7.5C183.3 99.5 186.1 96.9 186.1 92zM258.3 70.4c0-2.5 2-4.5 4.5-4.5 2.6 0 4.6 2 4.6 4.5 0 2.6-2 4.5-4.6 4.5C260.3 75 258.3 73.1 258.3 70.4zM258.9 78.5h7.9v27.4h-7.9V78.5zM270.5 92c0-9.2 7-14.2 14-14.2 7.3 0 14 5 14 14.2 0 9.3-6.9 14.5-14 14.5C277.1 106.5 270.5 101.4 270.5 92zM290.6 92c0-4.8-2.9-7.2-6-7.2-3.2 0-6 2.4-6 7.2 0 4.9 2.9 7.5 6 7.5C287.8 99.5 290.6 96.9 290.6 92zM309.5 88.5v17.3h-7.9V78.5h7.9v3.3c1.7-2.4 4.4-3.9 8-3.9 5.6 0 9.7 3.4 9.7 10.8v17.2h-7.9V90.3c0-3.8-1.9-5.3-4.7-5.3C312.4 84.9 310.5 86.2 309.5 88.5zM329.8 98.3l6.7-1.9c.8 2.7 2.6 4.1 5.4 4.1 2.3 0 4.1-.8 4.1-2.6 0-1.8-2.3-2.5-5.7-3-5.6-1-9.4-3.2-9.4-8.4 0-5.3 4.8-8.7 11.5-8.7 6.6 0 10 3.1 11.2 7.3l-6.7 1.7c-.6-2.3-2.2-3.3-4.5-3.3-2.4 0-3.8 1-3.8 2.6 0 1.8 2.1 2.3 5.5 2.7 5.4.8 9.7 3 9.7 8.7 0 5.3-4.8 8.8-11.8 8.8C335.4 106.4 331.2 103.6 329.8 98.3zM254.6 99.3c-1.3 0-1.9 0-2.3 0-1.5 0-2.9-1-2.9-3V85h5.3v-6.5h-5.3v-7.2h-7.9v7.2V85v11.3c0 3.8 1.2 6.2 2.7 7.6 1.6 1.4 3.9 2 6.3 2 1.1 0 2.4 0 4.2 0L254.6 99.3 254.6 99.3zM224.9 99.4c-2.4 0-4.5-1.4-4.5-5.1V78.5h-7.9v15.7c0 7.2 3.8 12.2 12.4 12.2l0 0 0 0 0 0 0 0c8.6 0 12.4-5 12.4-12.2V78.5h-7.9v15.8C229.4 97.9 227.3 99.3 224.9 99.4"/>
    <g>
        <path d="M214.8 57.4c-10.9 0-20.5-7.1-20.5-20.7 0-12.8 9.2-20.4 19.7-20.4 10.8 0 18.5 7.4 18.8 19.2.1 2.4.1 3.4.1 4h-27.4c.4 5.6 4.5 9 9.8 9 4 0 7.3-1.9 9.4-5.3l7.7 5.2C229.4 54 223.4 57.4 214.8 57.4zM205.9 32.3h15.6c-.2-5-3.9-7.2-7.7-7.2C209.9 25.1 206.2 27.4 205.9 32.3zM247.3 52.3v4.2h-10.6V0h11.3v19.9c2.5-2.2 5.9-3.4 9.9-3.4 9.3 0 17.7 6.9 17.7 20.3 0 13.6-8.6 20.4-17.7 20.4C253.4 57.2 249.7 55.3 247.3 52.3zM264.2 36.8c0-7.1-3.9-10.2-8.2-10.2-4.3 0-7.8 3-7.9 7.8v4.9c.1 4.9 3.5 7.9 7.9 7.9S264.2 43.9 264.2 36.8zM343.5 57.4c-10.9 0-20.5-7.1-20.5-20.7 0-12.8 9.2-20.4 19.7-20.4 10.8 0 18.5 7.4 18.8 19.2.1 2.4.1 3.4.1 4h-27.4c.4 5.6 4.5 9 9.8 9 4 0 7.3-1.9 9.4-5.3l7.7 5.2C358 54 352.1 57.4 343.5 57.4zM334.5 32.3h15.6c-.2-5-3.9-7.2-7.7-7.2C338.5 25.1 334.9 27.4 334.5 32.3zM384.3 57.4c-10.9 0-20.5-7.1-20.5-20.7 0-12.8 9.2-20.4 19.7-20.4 10.8 0 18.5 7.4 18.8 19.2.1 2.4.1 3.4.1 4h-27.4c.4 5.6 4.5 9 9.8 9 4 0 7.3-1.9 9.4-5.3l7.7 5.2C398.8 54 392.9 57.4 384.3 57.4zM375.3 32.3h15.6c-.2-5-3.9-7.2-7.7-7.2C379.4 25.1 375.7 27.4 375.3 32.3zM322.6 47.2c-1.6 0-2.9 0-3.5 0-2.2 0-4.2-1.5-4.2-4.4V0h-11.3v42.8c0 5.4 1.7 8.8 3.9 10.9 2.3 2 5.6 2.9 9 2.9 1.4 0 3.8 0 6.1 0V47.2L322.6 47.2zM424.8 47.2c-1.9 0-2.7 0-3.3 0-2.2 0-4.2-1.5-4.2-4.4V26.7h7.6v-9.4h-7.6V7h-11.3v10.3 9.4 16.2c0 5.4 1.7 8.8 3.9 10.9 2.3 2 5.6 2.9 9 2.9 1.6 0 3.4 0 6 0V47.2L424.8 47.2zM295.4 9.3c.6 0 1.9 0 3.5 0V0c-2.3 0-4.7 0-6.1 0-3.4 0-6.7.8-9 2.9-2.2 2-3.9 5.4-3.9 10.9v42.8h11.3V26.6h7.7v-9.3h-7.7v-3.6C291.2 10.8 293.3 9.3 295.4 9.3zM184.9 17.3l-6.5 24.2L174 30.6c-1-2.4-3.3-4-5.9-4s-4.9 1.6-5.9 3.9l-4.7 11.2-6.2-24.5h-11.2l9.5 34.9c.8 2.9 3.5 5 6.5 5 2.6 0 5-1.6 6.1-3.9l5.6-12.7 5.7 12.7c1.1 2.4 3.4 3.9 6 3.9 3 0 5.6-2 6.3-4.8l9.7-35.1L184.9 17.3 184.9 17.3 184.9 17.3z"/>
    </g>
    <g>
        <path d="M151.8 147.3c0 .4-.2.5-.5.5h-1.6c-.2 0-.4-.1-.4-.4 0-.1-.1-.2-.3-.2-.1 0-.5.1-1.4.4-.8.2-1.7.4-2.6.4-3.2 0-4.9-1.4-4.9-4.1 0-2.4 1.3-3.6 4.6-4.6l3.4-1c.6-.2.8-.5.8-.9v-.7c0-1.2-.9-1.8-2.7-1.8-2.9 0-4.4 1.3-4.8 1.3-.2 0-.4-.1-.4-.5v-1.2c0-.4.2-.7.7-.8 1.3-.5 2.9-.8 4.8-.8 1.9 0 3.3.4 4.1 1.1.8.8 1.1 1.7 1.1 3.6L151.8 147.3 151.8 147.3zM149.1 140.4c0-.2-.1-.3-.2-.3-.1 0-.3 0-.5.1l-3 1c-1.6.5-2.2 1.2-2.2 2.5 0 1.4.9 2.2 2.7 2.2 2 0 3.3-.7 3.3-1.6L149.1 140.4 149.1 140.4zM173.4 146.4c-1.3 1.1-2.7 1.5-6 1.5h-4.7c-.4 0-.5-.2-.5-.5v-18.5c0-.4.2-.5.5-.5h5c4.4 0 6.2 1.7 6.2 4.7 0 2.3-1.1 3.6-2.9 4.1-.2 0-.2.1-.2.2 0 .1.1.1.4.2 2.6.5 3.9 2.2 3.9 4.8C175.1 144 174.5 145.3 173.4 146.4zM167.1 130.2h-1.8c-.2 0-.3.1-.3.4v5.8c0 .2.1.4.4.4h1.6c2.7 0 4-1.1 4-3.3C171 131.2 170 130.2 167.1 130.2zM168 138.5h-2.7c-.2 0-.3.1-.3.4v6.7c0 .2.1.4.4.4h2.4c3 0 4.4-1.1 4.4-3.8C172.1 139.7 170.9 138.5 168 138.5zM185.6 135.1c0 .3-.1.5-.4.5-.1 0-.9-.2-2.2-.2-1.7 0-2.6.7-2.6 2.2v9.9c0 .4-.2.5-.5.5h-1.7c-.3 0-.5-.2-.5-.5v-13.6c0-.4.2-.5.5-.5h1.6c.2 0 .4.1.4.4v.2c0 .4.2.5 1.8-.3.8-.4 1.5-.5 2.2-.5 1 0 1.3.2 1.3.8L185.6 135.1 185.6 135.1zM190.4 128.8c0 1.1-.6 1.6-1.7 1.6s-1.6-.5-1.6-1.7c0-1 .7-1.6 1.7-1.6C189.8 127.2 190.4 127.7 190.4 128.8zM190.1 147.3c0 .4-.2.5-.5.5h-1.7c-.4 0-.5-.2-.5-.5v-13.6c0-.4.2-.5.5-.5h1.7c.3 0 .5.2.5.5V147.3zM206.1 147.3c0 .4-.1.5-.5.5h-1.7c-.2 0-.4-.1-.4-.4 0-.1-.1-.2-.3-.2-.1 0-.5.1-1.3.4-.8.2-1.6.4-2.4.4-4.3 0-6.7-2.8-6.7-7.3 0-5 2.7-7.8 7-7.8 1.9 0 3.3.8 3.3.8.2 0 .2-.1.2-.4v-5.7c0-.4.2-.5.5-.5h1.8c.3 0 .5.2.5.5L206.1 147.3 206.1 147.3 206.1 147.3zM203.3 136.7c0-1-1.2-1.7-3-1.7-3 0-4.7 1.9-4.7 5.7 0 3.6 1.6 5.4 4.7 5.4 1.8 0 3-.7 3-1.8V136.7zM222 147.7c0 1.4-.2 2.5-.5 3.2-.9 2-3.2 3-6.8 3-1.9 0-3.5-.3-4.8-1-.4-.1-.5-.4-.5-.7v-1.2c0-.3.1-.5.4-.5.2 0 2.2 1.3 5.1 1.3 1.4 0 2.6-.3 3.3-.8.7-.5 1-1.4 1-2.7v-1c0-.2-.1-.4-.2-.4-.1 0-1.7.9-3.6.9-4.3 0-6.7-2.7-6.7-7.3 0-5 2.7-7.6 7-7.6.8 0 1.6.1 2.3.4.7.3 1.1.4 1.2.4.2 0 .3-.1.3-.2 0-.2.1-.4.4-.4h1.6c.4 0 .5.2.5.5L222 147.7 222 147.7 222 147.7zM219.3 136.7c0-1.1-1.3-1.7-3-1.7-3.2 0-4.7 1.7-4.7 5.6 0 3.5 1.6 5.3 4.7 5.3 1.7 0 3-.7 3-1.7V136.7zM237.7 140.3c0 .4-.2.5-.5.5h-9.3c-.3 0-.4.1-.4.4 0 3 1.7 4.8 4.8 4.8 2.2 0 4.1-1.1 4.2-1.1.2 0 .4.1.4.5v1c0 .4-.1.6-.3.8-.7.5-2.7.8-4.6.8-4.9 0-7.4-2.7-7.4-7.4 0-2.4.7-4.2 1.9-5.7 1.3-1.4 2.9-2.1 5-2.1 3.9 0 6.3 2.4 6.3 6.7L237.7 140.3 237.7 140.3 237.7 140.3zM231.3 134.9c-2.3 0-3.8 1.7-3.8 3.6 0 .2.1.3.4.3h6.6c.2 0 .4-.1.4-.4C234.9 136.3 233.5 134.9 231.3 134.9zM243.3 148c-1.4 0-2.6-.2-3.5-.7-.3-.2-.5-.4-.5-.8v-1.2c0-.3.1-.5.4-.5.1 0 .5.2 1.1.5.7.4 1.4.5 2.2.5 1.7 0 2.6-.7 2.6-1.9 0-.9-.3-1.4-1.5-2.1l-2.3-1.4c-1.7-1.1-2.4-2.2-2.4-3.6 0-2.5 1.7-4 4.8-4 1.4 0 2.4.2 3.3.7.3.2.5.4.5.8v1.2c0 .3-.1.5-.4.5-.3 0-1.4-1.1-3.2-1.1-1.5 0-2.3.6-2.3 1.6 0 .7.4 1.3 1.2 1.7l3.1 2c1.3.8 2 2 2 3.5C248.4 146.6 246.4 148 243.3 148zM258.9 147c0 .4-.4.7-1 .8-.7.2-1.4.2-2 .2-3.2 0-4.3-1.4-4.3-4.5v-8c0-.2-.1-.4-.3-.4h-1.5c-.4 0-.5-.2-.5-.5v-1c0-.4.2-.5.5-.5h1.5c.2 0 .3-.1.3-.4v-3c0-.4.2-.5.5-.5h1.7c.4 0 .5.2.5.5v3c0 .2.1.4.3.4h3.9c.3 0 .5.2.5.5v1c0 .4-.2.5-.5.5h-3.9c-.2 0-.3.1-.3.4v8.1c0 1.6.7 2.3 2 2.3 1.1 0 2.2-.6 2.2-.6.2 0 .4.2.4.5L258.9 147 258.9 147 258.9 147zM267.5 148c-4.5 0-7-2.9-7-7.5s2.4-7.6 7-7.6c4.5 0 7 2.9 7 7.5C274.5 145 272 148 267.5 148zM267.5 134.9c-2.8 0-4.2 1.7-4.2 5.7 0 3.8 1.4 5.4 4.2 5.4s4.2-1.7 4.2-5.7C271.6 136.6 270.2 134.9 267.5 134.9zM289.1 147.3c0 .4-.2.5-.5.5h-1.7c-.3 0-.5-.2-.5-.5v-8.8c0-1.1-.2-1.9-.5-2.3-.6-.8-1.5-1.1-2.7-1.1-1.9 0-3.3.5-3.3 1.8v10.6c0 .4-.2.5-.5.5h-1.7c-.3 0-.5-.2-.5-.5v-13.6c0-.4.2-.5.5-.5h1.6c.2 0 .4.1.4.4s.2.4 1.8-.2c.8-.2 1.6-.4 2.5-.4 1.9 0 3.2.5 4.1 1.4.9 1 1.1 2.2 1.1 4.7L289.1 147.3 289.1 147.3zM304.9 140.3c0 .4-.2.5-.5.5h-9.3c-.3 0-.4.1-.4.4 0 3 1.7 4.8 4.8 4.8 2.2 0 4.1-1.1 4.2-1.1.2 0 .4.1.4.5v1c0 .4-.1.6-.3.8-.7.5-2.7.8-4.6.8-4.9 0-7.4-2.7-7.4-7.4 0-2.4.7-4.2 1.9-5.7 1.3-1.4 2.9-2.1 5-2.1 3.9 0 6.3 2.4 6.3 6.7L304.9 140.3 304.9 140.3 304.9 140.3zM298.4 134.9c-2.3 0-3.8 1.7-3.8 3.6 0 .2.1.3.4.3h6.6c.2 0 .4-.1.4-.4C302 136.3 300.6 134.9 298.4 134.9zM325.3 146.5c0 .4-.1.6-.4.8-.9.5-2.3.8-4.2.8-4.8 0-7.3-2.8-7.3-7.4 0-4.7 2.6-7.7 7.7-7.7 1.4 0 3.2.4 3.8.7.3.2.4.4.4.8v1.2c0 .3-.1.5-.4.5-.4 0-1.6-1.1-3.8-1.1-3.2 0-4.8 2.3-4.8 5.6 0 3.5 1.7 5.4 4.7 5.4 2.2 0 3.7-1.1 4-1.1.2 0 .4.1.4.5L325.3 146.5 325.3 146.5zM334.1 148c-4.5 0-7-2.9-7-7.5s2.4-7.6 7-7.6c4.5 0 7 2.9 7 7.5C341.2 145 338.7 148 334.1 148zM334.1 134.9c-2.8 0-4.2 1.7-4.2 5.7 0 3.8 1.4 5.4 4.2 5.4s4.2-1.7 4.2-5.7C338.4 136.6 336.9 134.9 334.1 134.9zM364.6 147.3c0 .4-.2.5-.5.5h-1.7c-.3 0-.5-.2-.5-.5v-9.1c0-2.2-1-3.3-3.2-3.3-.7 0-1.4.1-2.1.4-.7.3-1 .7-1 1.3v10.6c0 .4-.2.5-.5.5h-1.7c-.3 0-.5-.2-.5-.5v-9.1c0-2.2-1-3.3-3.3-3.3-.7 0-1.4.1-2 .4-.7.3-1 .7-1 1.3v10.6c0 .4-.2.5-.5.5h-1.7c-.3 0-.5-.2-.5-.5v-13.6c0-.4.2-.5.5-.5h1.6c.2 0 .4.1.4.4 0 .1.1.2.3.2.2 0 .7-.1 1.5-.4.7-.2 1.6-.4 2.4-.4 2.6 0 3.6 1.3 3.9 1.3h.2c.5 0 2.1-1.3 5-1.3 1.7 0 2.9.5 3.8 1.5.7.8 1.1 2.2 1.1 4.1L364.6 147.3 364.6 147.3 364.6 147.3zM374.5 148c-1.8 0-3.4-.8-3.4-.8-.2 0-.3.1-.3.4v5.8c0 .4-.2.5-.5.5h-1.7c-.3 0-.5-.2-.5-.5v-19.7c0-.4.2-.5.5-.5h1.6c.2 0 .4.1.4.4 0 .1.1.2.3.2.1 0 .5-.1 1.3-.4.8-.2 1.6-.4 2.4-.4 4.3 0 6.7 2.8 6.7 7.3C381.4 145.1 378.7 148 374.5 148zM373.8 134.9c-1.6 0-3 .5-3 1.8v7.4c0 1.3 1.4 1.8 3 1.8 2.9 0 4.8-1.7 4.8-5.7C378.6 136.8 376.9 134.9 373.8 134.9zM394.8 147.3c0 .4-.2.5-.5.5h-1.6c-.2 0-.4-.1-.4-.4 0-.1-.1-.2-.3-.2-.1 0-.5.1-1.4.4-.8.2-1.7.4-2.6.4-3.2 0-4.9-1.4-4.9-4.1 0-2.4 1.3-3.6 4.6-4.6l3.4-1c.6-.2.8-.5.8-.9v-.7c0-1.2-.9-1.8-2.7-1.8-2.9 0-4.4 1.3-4.8 1.3-.2 0-.4-.1-.4-.5v-1.2c0-.4.2-.7.7-.8 1.3-.5 2.9-.8 4.8-.8 1.9 0 3.3.4 4.1 1.1.8.8 1.1 1.7 1.1 3.6L394.8 147.3 394.8 147.3zM392 140.4c0-.2-.1-.3-.2-.3-.1 0-.3 0-.5.1l-3 1c-1.6.5-2.2 1.2-2.2 2.5 0 1.4.9 2.2 2.7 2.2 2 0 3.3-.7 3.3-1.6L392 140.4 392 140.4zM410.3 147.3c0 .4-.2.5-.5.5h-1.7c-.3 0-.5-.2-.5-.5v-8.8c0-1.1-.2-1.9-.5-2.3-.6-.8-1.5-1.1-2.7-1.1-1.9 0-3.3.5-3.3 1.8v10.6c0 .4-.2.5-.5.5h-1.7c-.3 0-.5-.2-.5-.5v-13.6c0-.4.2-.5.5-.5h1.6c.2 0 .4.1.4.4s.2.4 1.8-.2c.8-.2 1.6-.4 2.5-.4 1.9 0 3.2.5 4.1 1.4.9 1 1.1 2.2 1.1 4.7L410.3 147.3 410.3 147.3zM425.1 134.1l-6.4 17.1c-.8 2.1-1.6 3-3.6 3-.8 0-1.1-.2-1.1-.5v-1.3c0-.2.1-.4.4-.4.1 0 .4 0 .5 0 .7 0 1.1-.4 1.5-1.4l.7-1.7c.1-.3.2-.5.2-.7 0-.1-.1-.4-.2-.7l-5.1-13.4c-.1-.2-.1-.4-.1-.5 0-.2.2-.4.5-.4h2c.2 0 .4.1.5.4l3.6 10.6c.1.5.4.5.5 0l3.7-10.6c.1-.2.2-.4.5-.4h1.5c.3 0 .5.1.5.4C425.2 133.6 425.1 133.8 425.1 134.1z"/>
    </g>
    <g>
        <path class="st0"
              d="M51.4 77.1L51.4 77.1c-6.4-3.8-15.2-9.9-18.8-17.3-3.5-7.5-2.6-16.3-1.4-25.5.5-3 .1-6.2-1.3-9.1C26.2 17.4 16.8 14 9 17.7 1.2 21.4-2.2 30.8 1.5 38.6c1.4 2.9 3.6 5.3 6.2 6.8l0 0c7.9 4.9 15.3 9.8 18.9 17.3s2.6 18.2 1.4 25.6l0 0c-.5 3-.1 6.2 1.3 9.1 3.7 7.8 13.1 11.2 20.9 7.5s11.2-13.1 7.5-20.9C56.3 80.9 54.1 78.6 51.4 77.1zM93.5 77.1L93.5 77.1c-6.4-3.8-15.2-9.9-18.8-17.3-3.5-7.5-2.6-16.3-1.4-25.5.5-3 .1-6.2-1.3-9.1C68.2 17.4 58.8 14 51 17.7c-7.8 3.7-11.2 13.1-7.5 20.9 1.4 2.9 3.6 5.3 6.2 6.8l0 0c7.9 4.9 15.3 9.8 18.9 17.3 3.5 7.5 2.6 18.2 1.4 25.6l0 0c-.5 3-.1 6.2 1.3 9.1 3.7 7.8 13.1 11.2 20.9 7.5s11.2-13.1 7.5-20.9C98.3 80.9 96.1 78.6 93.5 77.1zM118.3 22.4c-5.3-6.9-15.1-8.2-22-3-5.1 3.9-7.2 10.3-5.7 16.2l0 0c4.1 16.9 4.1 16.9 5.2 21.6l0 0c.5 2.3 2.8 3.8 5.1 3.2 1-.2 1.8-.7 2.4-1.4l0 0c3.2-3.7 3.2-3.7 14.5-17l0 0C122.5 36.5 122.9 28.3 118.3 22.4z"/>
    </g>
</svg>